<svg width="62" height="23" viewBox="0 0 62 23" fill="none" xmlns="http://www.w3.org/2000/svg">
<path d="M0 10.3871L4.70387 0H6.1729L10.8916 10.3871H9.33355L5.13419 0.830968H5.72774L1.52839 10.3871H0ZM2.00323 7.79032L2.40387 6.60323H8.25032L8.68065 7.79032H2.00323Z" fill="#0000F5"/>
<path d="M12.4411 10.3871V0H16.4921C17.4022 0 18.1787 0.143441 18.8217 0.430323C19.4648 0.717205 19.9594 1.13269 20.3056 1.67677C20.6519 2.22086 20.825 2.86882 20.825 3.62065C20.825 4.37247 20.6519 5.02043 20.3056 5.56452C19.9594 6.09871 19.4648 6.50925 18.8217 6.79613C18.1787 7.08301 17.4022 7.22645 16.4921 7.22645H13.2572L13.925 6.54387V10.3871H12.4411ZM19.3856 10.3871L16.7443 6.61807H18.3321L21.003 10.3871H19.3856ZM13.925 6.69226L13.2572 5.96516H16.4476C17.3972 5.96516 18.1144 5.76237 18.5992 5.35677C19.0938 4.94129 19.3411 4.36258 19.3411 3.62065C19.3411 2.87871 19.0938 2.30495 18.5992 1.89936C18.1144 1.49376 17.3972 1.29097 16.4476 1.29097H13.2572L13.925 0.549032V6.69226Z" fill="#0000F5"/>
<path d="M23.2223 10.3871V0H24.7062V10.3871H23.2223Z" fill="#0000F5"/>
<path d="M27.816 10.3871V0H29.0327L35.9031 8.53226H35.265V0H36.7489V10.3871H35.5321L28.6618 1.85484H29.2998V10.3871H27.816Z" fill="#0000F5"/>
<path d="M38.285 10.3871L42.9889 0H44.4579L49.1766 10.3871H47.6186L43.4192 0.830968H44.0128L39.8134 10.3871H38.285ZM40.2883 7.79032L40.6889 6.60323H46.5354L46.9657 7.79032H40.2883Z" fill="#0000F5"/>
<path d="M1.32166 20.4923L1.24747 18.6819L7.13843 12.6129H8.83005L4.27456 17.4206L3.4436 18.3406L1.32166 20.4923ZM0.0158531 23V12.6129H1.49972V23H0.0158531ZM7.37585 23L3.11714 18.0439L4.11134 16.9458L9.11198 23H7.37585Z" fill="#0000F5"/>
<path d="M10.6812 23V12.6129H14.7321C15.6423 12.6129 16.4188 12.7563 17.0618 13.0432C17.7048 13.3301 18.1995 13.7456 18.5457 14.2897C18.8919 14.8338 19.065 15.4817 19.065 16.2335C19.065 16.9854 18.8919 17.6333 18.5457 18.1774C18.1995 18.7116 17.7048 19.1222 17.0618 19.409C16.4188 19.6959 15.6423 19.8394 14.7321 19.8394H11.4973L12.165 19.1568V23H10.6812ZM17.6257 23L14.9844 19.231H16.5721L19.2431 23H17.6257ZM12.165 19.3052L11.4973 18.5781H14.6876C15.6373 18.5781 16.3545 18.3753 16.8392 17.9697C17.3339 17.5542 17.5812 16.9755 17.5812 16.2335C17.5812 15.4916 17.3339 14.9179 16.8392 14.5123C16.3545 14.1067 15.6373 13.9039 14.6876 13.9039H11.4973L12.165 13.1619V19.3052Z" fill="#0000F5"/>
<path d="M19.8895 23L24.5934 12.6129H26.0624L30.7811 23H29.2231L25.0237 13.4439H25.6173L21.4179 23H19.8895ZM21.8927 20.4032L22.2934 19.2161H28.1398L28.5702 20.4032H21.8927Z" fill="#0000F5"/>
<path d="M33.6809 17.0942H39.0229V18.3555H33.6809V17.0942ZM33.8145 21.709H39.8687V23H32.3306V12.6129H39.6609V13.9039H33.8145V21.709Z" fill="#0000F5"/>
<path d="M45.1239 23L40.5536 12.6129H42.1562L46.3555 22.1987H45.4355L49.6646 12.6129H51.1484L46.5929 23H45.1239Z" fill="#0000F5"/>
<path d="M50.5668 23L55.2707 12.6129H56.7397L61.4584 23H59.9004L55.701 13.4439H56.2946L52.0952 23H50.5668ZM52.57 20.4032L52.9707 19.2161H58.8171L59.2475 20.4032H52.57Z" fill="#0000F5"/>
</svg>
