<svg width="83" height="31" viewBox="0 0 83 31" fill="none" xmlns="http://www.w3.org/2000/svg">
<path d="M0 14L6.34 0H8.32L14.68 14H12.58L6.92 1.12H7.72L2.06 14H0ZM2.7 10.5L3.24 8.9H11.12L11.7 10.5H2.7Z" fill="#0000F5"/>
<path d="M16.7684 14V0H22.2284C23.4551 0 24.5018 0.193334 25.3684 0.580001C26.2351 0.966667 26.9018 1.52667 27.3684 2.26C27.8351 2.99333 28.0684 3.86667 28.0684 4.88C28.0684 5.89333 27.8351 6.76667 27.3684 7.5C26.9018 8.22 26.2351 8.77333 25.3684 9.16C24.5018 9.54667 23.4551 9.74 22.2284 9.74H17.8684L18.7684 8.82V14H16.7684ZM26.1284 14L22.5684 8.92H24.7084L28.3084 14H26.1284ZM18.7684 9.02L17.8684 8.04H22.1684C23.4484 8.04 24.4151 7.76667 25.0684 7.22C25.7351 6.66 26.0684 5.88 26.0684 4.88C26.0684 3.88 25.7351 3.10667 25.0684 2.56C24.4151 2.01333 23.4484 1.74 22.1684 1.74H17.8684L18.7684 0.74V9.02Z" fill="#0000F5"/>
<path d="M31.2997 14V0H33.2997V14H31.2997Z" fill="#0000F5"/>
<path d="M37.4911 14V0H39.1311L48.3911 11.5H47.5311V0H49.5311V14H47.8911L38.6311 2.5H39.4911V14H37.4911Z" fill="#0000F5"/>
<path d="M51.6016 14L57.9416 0H59.9216L66.2816 14H64.1816L58.5216 1.12H59.3216L53.6616 14H51.6016ZM54.3016 10.5L54.8416 8.9H62.7216L63.3016 10.5H54.3016Z" fill="#0000F5"/>
<path d="M1.78137 27.62L1.68137 25.18L9.62137 17H11.9014L5.76137 23.48L4.64137 24.72L1.78137 27.62ZM0.0213673 31V17H2.02137V31H0.0213673ZM9.94137 31L4.20137 24.32L5.54137 22.84L12.2814 31H9.94137Z" fill="#0000F5"/>
<path d="M14.3964 31V17H19.8564C21.083 17 22.1297 17.1933 22.9964 17.58C23.863 17.9667 24.5297 18.5267 24.9964 19.26C25.463 19.9933 25.6964 20.8667 25.6964 21.88C25.6964 22.8933 25.463 23.7667 24.9964 24.5C24.5297 25.22 23.863 25.7733 22.9964 26.16C22.1297 26.5467 21.083 26.74 19.8564 26.74H15.4964L16.3964 25.82V31H14.3964ZM23.7564 31L20.1964 25.92H22.3364L25.9364 31H23.7564ZM16.3964 26.02L15.4964 25.04H19.7964C21.0764 25.04 22.043 24.7667 22.6964 24.22C23.363 23.66 23.6964 22.88 23.6964 21.88C23.6964 20.88 23.363 20.1067 22.6964 19.56C22.043 19.0133 21.0764 18.74 19.7964 18.74H15.4964L16.3964 17.74V26.02Z" fill="#0000F5"/>
<path d="M26.8076 31L33.1476 17H35.1276L41.4876 31H39.3876L33.7276 18.12H34.5276L28.8676 31H26.8076ZM29.5076 27.5L30.0476 25.9H37.9276L38.5076 27.5H29.5076Z" fill="#0000F5"/>
<path d="M45.3961 23.04H52.5961V24.74H45.3961V23.04ZM45.5761 29.26H53.7361V31H43.5761V17H53.4561V18.74H45.5761V29.26Z" fill="#0000F5"/>
<path d="M60.8192 31L54.6592 17H56.8192L62.4792 29.92H61.2392L66.9392 17H68.9392L62.7992 31H60.8192Z" fill="#0000F5"/>
<path d="M68.1553 31L74.4953 17H76.4753L82.8353 31H80.7353L75.0753 18.12H75.8753L70.2153 31H68.1553ZM70.8553 27.5L71.3953 25.9H79.2753L79.8553 27.5H70.8553Z" fill="#0000F5"/>
</svg>
