<svg width="546" height="204" viewBox="0 0 546 204" fill="none" xmlns="http://www.w3.org/2000/svg">
<path d="M0 92.129L41.7213 0H54.751L96.6039 92.129H82.7845L45.5381 7.37032H50.8026L13.5561 92.129H0ZM17.7677 69.0968L21.3213 58.5677H73.1768L76.9935 69.0968H17.7677Z" fill="#0000F5"/>
<path d="M110.347 92.129V0H146.277C154.35 0 161.237 1.27226 166.941 3.81678C172.644 6.36129 177.031 10.0465 180.102 14.8723C183.173 19.6981 184.708 25.4452 184.708 32.1135C184.708 38.7819 183.173 44.529 180.102 49.3548C177.031 54.0929 172.644 57.7342 166.941 60.2787C161.237 62.8232 154.35 64.0955 146.277 64.0955H117.586L123.508 58.0413V92.129H110.347ZM171.942 92.129L148.515 58.6994H162.597L186.288 92.129H171.942ZM123.508 59.3574L117.586 52.9084H145.883C154.306 52.9084 160.667 51.1097 164.966 47.5123C169.354 43.8271 171.547 38.6942 171.547 32.1135C171.547 25.5329 169.354 20.4439 164.966 16.8465C160.667 13.249 154.306 11.4503 145.883 11.4503H117.586L123.508 4.86968V59.3574Z" fill="#0000F5"/>
<path d="M205.972 92.129V0H219.133V92.129H205.972Z" fill="#0000F5"/>
<path d="M246.716 92.129V0H257.508L318.445 75.6774H312.785V0H325.947V92.129H315.154L254.217 16.4516H259.877V92.129H246.716Z" fill="#0000F5"/>
<path d="M339.572 92.129L381.293 0H394.323L436.175 92.129H422.356L385.11 7.37032H390.374L353.128 92.129H339.572ZM357.339 69.0968L360.893 58.5677H412.748L416.565 69.0968H357.339Z" fill="#0000F5"/>
<path d="M11.7225 181.757L11.0645 165.701L63.3148 111.871H78.3187L37.9135 154.514L30.5432 162.674L11.7225 181.757ZM0.14061 204V111.871H13.3019V204H0.14061ZM65.4206 204L27.6477 160.041L36.4658 150.302L80.8193 204H65.4206Z" fill="#0000F5"/>
<path d="M94.7374 204V111.871H130.668C138.74 111.871 145.628 113.143 151.331 115.688C157.034 118.232 161.421 121.917 164.492 126.743C167.563 131.569 169.099 137.316 169.099 143.985C169.099 150.653 167.563 156.4 164.492 161.226C161.421 165.964 157.034 169.605 151.331 172.15C145.628 174.694 138.74 175.966 130.668 175.966H101.976L107.899 169.912V204H94.7374ZM156.332 204L132.905 170.57H146.988L170.678 204H156.332ZM107.899 171.228L101.976 164.779H130.273C138.696 164.779 145.057 162.981 149.357 159.383C153.744 155.698 155.937 150.565 155.937 143.985C155.937 137.404 153.744 132.315 149.357 128.717C145.057 125.12 138.696 123.321 130.273 123.321H101.976L107.899 116.741V171.228Z" fill="#0000F5"/>
<path d="M176.411 204L218.133 111.871H231.162L273.015 204H259.196L221.949 119.241H227.214L189.968 204H176.411ZM194.179 180.968L197.733 170.439H249.588L253.405 180.968H194.179Z" fill="#0000F5"/>
<path d="M298.735 151.618H346.116V162.805H298.735V151.618ZM299.92 192.55H353.618V204H286.759V111.871H351.775V123.321H299.92V192.55Z" fill="#0000F5"/>
<path d="M400.229 204L359.693 111.871H373.907L411.153 196.893H402.993L440.503 111.871H453.664L413.259 204H400.229Z" fill="#0000F5"/>
<path d="M448.506 204L490.227 111.871H503.257L545.109 204H531.29L494.044 119.241H499.308L462.062 204H448.506ZM466.273 180.968L469.827 170.439H521.682L525.499 180.968H466.273Z" fill="#0000F5"/>
</svg>
